name ./resultDataOpenSim/trcMotMarkerGrf/sub10/grf-02-04.mot
datacolumns 19
datarows 27
range 0.98000000 1.08400000
endheader

                time	     ground_force_vx	     ground_force_vy	     ground_force_vz	     ground_force_px	     ground_force_py	     ground_force_pz	   l_ground_force_vx	   l_ground_force_vy	   l_ground_force_vz	   l_ground_force_px	   l_ground_force_py	   l_ground_force_pz	     ground_torque_x	     ground_torque_y	     ground_torque_z	   l_ground_torque_x	   l_ground_torque_y	   l_ground_torque_z	
          0.98000000	          0.00000000	          0.00000000	          0.00000000	          0.00000000	          0.00000000	          0.00000000	         -7.35165177	        347.38377423	         27.25910926	          0.01212167	         -0.02500000	         -0.13753058	          0.00000000	          0.00000000	          0.00000000	          0.00000000	         -0.40949249	          0.00000000	
          0.98400000	          0.00000000	          0.00000000	          0.00000000	          0.00000000	          0.00000000	          0.00000000	         -5.98075222	        346.39170382	         27.31177212	          0.01273218	         -0.02500000	         -0.13752323	          0.00000000	          0.00000000	          0.00000000	          0.00000000	         -0.46153441	          0.00000000	
          0.98800000	          0.00000000	          0.00000000	          0.00000000	          0.00000000	          0.00000000	          0.00000000	         -4.54001957	        346.10517270	         27.35292194	          0.01338156	         -0.02500000	         -0.13745036	          0.00000000	          0.00000000	          0.00000000	          0.00000000	         -0.52846451	          0.00000000	
          0.99200000	          0.00000000	          0.00000000	          0.00000000	          0.00000000	          0.00000000	          0.00000000	         -3.01670066	        346.54768611	         27.37487150	          0.01410058	         -0.02500000	         -0.13729412	          0.00000000	          0.00000000	          0.00000000	          0.00000000	         -0.60777367	          0.00000000	
          0.99600000	          0.00000000	          0.00000000	          0.00000000	          0.00000000	          0.00000000	          0.00000000	         -1.40823892	        347.77447495	         27.38668994	          0.01491419	         -0.02500000	         -0.13704488	          0.00000000	          0.00000000	          0.00000000	          0.00000000	         -0.69624867	          0.00000000	
          1.00000000	          0.00000000	          0.00000000	          0.00000000	          0.00000000	          0.00000000	          0.00000000	          0.29375821	        349.88224885	         27.41635023	          0.01583897	         -0.02500000	         -0.13670319	          0.00000000	          0.00000000	          0.00000000	          0.00000000	         -0.79075868	          0.00000000	
          1.00400000	          0.00000000	          0.00000000	          0.00000000	          0.00000000	          0.00000000	          0.00000000	          2.09790032	        352.99014106	         27.50647888	          0.01687160	         -0.02500000	         -0.13626707	          0.00000000	          0.00000000	          0.00000000	          0.00000000	         -0.88934308	          0.00000000	
          1.00800000	          0.00000000	          0.00000000	          0.00000000	          0.00000000	          0.00000000	          0.00000000	          4.00116562	        357.20193485	         27.69415299	          0.01796094	         -0.02500000	         -0.13577832	          0.00000000	          0.00000000	          0.00000000	          0.00000000	         -0.99205457	          0.00000000	
          1.01200000	          0.00000000	          0.00000000	          0.00000000	          0.00000000	          0.00000000	          0.00000000	          5.98889188	        362.59549715	         27.98404299	          0.01904704	         -0.02500000	         -0.13527030	          0.00000000	          0.00000000	          0.00000000	          0.00000000	         -1.10100409	          0.00000000	
          1.01600000	          0.00000000	          0.00000000	          0.00000000	          0.00000000	          0.00000000	          0.00000000	          8.04368331	        369.22377246	         28.34387718	          0.02006828	         -0.02500000	         -0.13475430	          0.00000000	          0.00000000	          0.00000000	          0.00000000	         -1.21954993	          0.00000000	
          1.02000000	          0.00000000	          0.00000000	          0.00000000	          0.00000000	          0.00000000	          0.00000000	         10.15405139	        377.09201396	         28.72967160	          0.02095540	         -0.02500000	         -0.13425922	          0.00000000	          0.00000000	          0.00000000	          0.00000000	         -1.35106945	          0.00000000	
          1.02400000	          0.00000000	          0.00000000	          0.00000000	          0.00000000	          0.00000000	          0.00000000	         12.31677709	        386.15847683	         29.11594437	          0.02159207	         -0.02500000	         -0.13387589	          0.00000000	          0.00000000	          0.00000000	          0.00000000	         -1.49789006	          0.00000000	
          1.02800000	          0.00000000	          0.00000000	          0.00000000	          0.00000000	          0.00000000	          0.00000000	         14.53515058	        396.40862921	         29.50863004	          0.02188550	         -0.02500000	         -0.13367653	          0.00000000	          0.00000000	          0.00000000	          0.00000000	         -1.66081365	          0.00000000	
          1.03200000	          0.00000000	          0.00000000	          0.00000000	          0.00000000	          0.00000000	          0.00000000	         16.81928598	        407.91223385	         29.93692210	          0.02187448	         -0.02500000	         -0.13361371	          0.00000000	          0.00000000	          0.00000000	          0.00000000	         -1.83936622	          0.00000000	
          1.03600000	          0.00000000	          0.00000000	          0.00000000	          0.00000000	          0.00000000	          0.00000000	         19.18951860	        420.75909625	         30.42888298	          0.02172288	         -0.02500000	         -0.13355943	          0.00000000	          0.00000000	          0.00000000	          0.00000000	         -2.03253180	          0.00000000	
          1.04000000	          0.00000000	          0.00000000	          0.00000000	          0.00000000	          0.00000000	          0.00000000	         21.67214919	        434.94519681	         30.98619151	          0.02160935	         -0.02500000	         -0.13343221	          0.00000000	          0.00000000	          0.00000000	          0.00000000	         -2.23950958	          0.00000000	
          1.04400000	          0.00000000	          0.00000000	          0.00000000	          0.00000000	          0.00000000	          0.00000000	         24.28238572	        450.34023010	         31.57978922	          0.02164827	         -0.02500000	         -0.13321657	          0.00000000	          0.00000000	          0.00000000	          0.00000000	         -2.46010175	          0.00000000	
          1.04800000	          0.00000000	          0.00000000	          0.00000000	          0.00000000	          0.00000000	          0.00000000	         27.01470938	        466.74920397	         32.17154867	          0.02186291	         -0.02500000	         -0.13293371	          0.00000000	          0.00000000	          0.00000000	          0.00000000	         -2.69458941	          0.00000000	
          1.05200000	          0.00000000	          0.00000000	          0.00000000	          0.00000000	          0.00000000	          0.00000000	         29.85646913	        484.00068765	         32.74008392	          0.02219393	         -0.02500000	         -0.13262746	          0.00000000	          0.00000000	          0.00000000	          0.00000000	         -2.94322484	          0.00000000	
          1.05600000	          0.00000000	          0.00000000	          0.00000000	          0.00000000	          0.00000000	          0.00000000	         32.80914834	        502.00593150	         33.28439233	          0.02254251	         -0.02500000	         -0.13234235	          0.00000000	          0.00000000	          0.00000000	          0.00000000	         -3.20563319	          0.00000000	
          1.06000000	          0.00000000	          0.00000000	          0.00000000	          0.00000000	          0.00000000	          0.00000000	         35.89802287	        520.75704789	         33.80924371	          0.02284159	         -0.02500000	         -0.13209074	          0.00000000	          0.00000000	          0.00000000	          0.00000000	         -3.48041052	          0.00000000	
          1.06400000	          0.00000000	          0.00000000	          0.00000000	          0.00000000	          0.00000000	          0.00000000	         39.16658884	        540.25771565	         34.31909742	          0.02309059	         -0.02500000	         -0.13184236	          0.00000000	          0.00000000	          0.00000000	          0.00000000	         -3.76507822	          0.00000000	
          1.06800000	          0.00000000	          0.00000000	          0.00000000	          0.00000000	          0.00000000	          0.00000000	         42.65929168	        560.43319007	         34.82384322	          0.02332872	         -0.02500000	         -0.13155426	          0.00000000	          0.00000000	          0.00000000	          0.00000000	         -4.05637936	          0.00000000	
          1.07200000	          0.00000000	          0.00000000	          0.00000000	          0.00000000	          0.00000000	          0.00000000	         46.40400721	        581.10420998	         35.33639198	          0.02359715	         -0.02500000	         -0.13121515	          0.00000000	          0.00000000	          0.00000000	          0.00000000	         -4.35073049	          0.00000000	
          1.07600000	          0.00000000	          0.00000000	          0.00000000	          0.00000000	          0.00000000	          0.00000000	         50.40906053	        602.04904245	         35.86670763	          0.02390338	         -0.02500000	         -0.13085350	          0.00000000	          0.00000000	          0.00000000	          0.00000000	         -4.64458066	          0.00000000	
          1.08000000	          0.00000000	          0.00000000	          0.00000000	          0.00000000	          0.00000000	          0.00000000	         54.67712180	        623.07788184	         36.43336713	          0.02422755	         -0.02500000	         -0.13050211	          0.00000000	          0.00000000	          0.00000000	          0.00000000	         -4.93456362	          0.00000000	
          1.08400000	          0.00000000	          0.00000000	          0.00000000	          0.00000000	          0.00000000	          0.00000000	         59.22061853	        644.03903954	         37.07625779	          0.02456361	         -0.02500000	         -0.13016371	          0.00000000	          0.00000000	          0.00000000	          0.00000000	         -5.21756387	          0.00000000	
